<?xml version="1.0" encoding="UTF-8"?>
<svg id="Livello_1_Correzione_colore_selettiva_1_Immagine" data-name="Livello 1 + Correzione colore selettiva 1 Immagine" xmlns="http://www.w3.org/2000/svg" viewBox="0 0 430.32 169.51">
  <defs>
    <style>
      .cls-1 {
        fill: #253080;
      }
    </style>
  </defs>
  <path class="cls-1" d="M56.32,124.81c17.01-16.63,25.99-36.19,25.99-50.94s-10.21-17.67-14.55-17.67c-16.63,0-43.66,34.3-43.66,34.3,0,0-.66-2.93-1.04-7.28-.38-4.35-1.42-4.54-2.08-4.16s1.04,15.59,1.04,15.59c0,0-9.36,11.25-13.51,21.83C4.35,127.08.57,142.67.19,148.72c-.38,6.05-.66,20.79,4.16,20.79s12.47-21.83,12.47-21.83c0,0,14.36,9.36,25.99,9.36s24.95-7.94,24.95-18.71-11.43-13.51-11.43-13.51ZM5.48,154.86c-2.74-1.7,3.31-18.9,5.2-23.91,1.89-5.01,8.69-20.79,11.43-23.91,0,0-2.27,17.86-5.2,27.03-2.93,9.17-8.79,22.49-11.43,20.79ZM38.65,149.66c-15.4,0-20.79-4.16-20.79-4.16,0,0,2.93-10.58,4.16-18.71,1.23-8.13,3.12-24.95,3.12-24.95,0,0,10.58-15.97,15.59-21.83,5.01-5.86,15.97-17.67,23.91-17.67,0,0,8.32-.85,8.32,12.47s-9.17,29.48-11.43,33.26c-2.27,3.78-10.4,15.59-10.4,15.59,0,0-10.02-.85-16.63,2.08-6.62,2.93-12.66,6.9-11.43,10.4,1.23,3.5,9.17,3.31,15.59,0,6.43-3.31,10.4-7.28,10.4-7.28,0,0,1.89-.85,3.12,0s6.24,3.97,6.24,8.32c0,4.44-4.35,12.47-19.75,12.47ZM44.89,128.97s-1.98,2.08-5.2,4.16-11.15,4.54-12.47,2.08,2.08-3.59,7.28-5.2,10.4-1.04,10.4-1.04Z"/>
  <path class="cls-1" d="M221.23,66.88c1.32-1.89,3.59-7.28,1.04-9.17-3.12-2.27-5.95.09-8.13,3.02-2.65,3.5-3.97,7.65-1.23,10.11,2.84,2.65,6.99-2.08,8.32-3.97Z"/>
  <path class="cls-1" d="M256.01,103.83c4.44-.09,14.84-10.58,18.99-15.12,0,0,1.42-1.23,3.21-3.21-1.32,6.05-1.61,8.41.57,9.73,2.46,1.42,4.91.19,8.13-4.06s10.3-14.36,13.23-17.29c2.93-2.93,5.95-6.8,7.09-6.14,1.13.76-2.46,6.71-4.06,12.19-1.13,3.78-.47,8.69,2.08,10.21,2.46,1.42,6.24-.19,9.17-2.08s8.6-7.84,11.15-11.15c1.23-1.61,3.69-4.73,5.76-7.47-.76,3.69-1.04,9.26,4.06,11.43,7.47,2.93,15.5-6.24,21.36-12.66,6.99-7.75,15.31-20.22,12.95-21.07-1.42.19-11.81,16.16-18.14,21.26-6.33,5.1-10.3,7.37-12.1,5.95-1.8-1.42-.66-7.47.76-10.87,1.42-3.5,8.13-14.27,8.13-14.27-3.21-1.04-6.14-3.02-6.14-3.02,0,0-3.31,5.67-5.1,9.17-.57,1.04-1.13,2.27-1.7,3.4-.47.38-1.04.95-1.7,1.8-5.67,6.52-16.44,23.72-21.36,22.4-4.91-1.32,3.59-15.12,5.1-17.29,1.42-2.17,6.24-9.45,3.02-11.15-3.21-1.7-9.17,3.02-13.23,6.14-4.06,3.02-10.49,11.15-14.27,15.31-3.78,4.06-5.2,5.95-6.14,5.1-.85-.85.09-2.93,2.08-6.14,2.46-4.06,3.31-5.39,5.01-8.41,1.32-2.36,2.17-3.78,2.17-3.78,0,0-1.7-.28-3.69-1.32-2.08-1.04-2.74-1.7-2.74-1.7,0,0-7.18,12.29-10.02,20.6-.19.09-.38.28-.66.57-5.01,6.05-15.69,17.29-21.17,17.01-5.48-.28,1.51-12.29,2.84-14.74,1.32-2.46,7.75-15.5,7.75-15.5l-8.13.19s-1.04,6.14-2.93,6.14c0,0-3.31-2.74-7.18-2.84s-15.59,4.16-24,15.97c-1.8,2.46-2.93,4.73-3.78,6.8-1.98,2.65-6.14,6.33-11.43,10.58-6.33,5.1-9.26,6.8-11.06,5.39s.57-6.71,2.08-10.21c1.42-3.5,8.13-14.27,8.13-14.27-3.21-1.04-6.14-3.02-6.14-3.02,0,0-.19.38-.57,1.04h0s-6.9,9.73-9.36,12.76c-2.46,3.02-5.67,7.09-9.17,11.15-3.5,4.06-10.4,12-13.23,10.21-2.84-1.8,4.25-16.92,10.21-28.54,5.86-11.62,14.27-20.32,14.27-20.32l-6.14-3.02s-2.27,3.69-6.14,9.17c-3.31,4.82-7.75,13.04-10.21,17.29s-4.06,5.1-4.06,5.1c0,0-.57-3.69-5.1-4.06-4.44-.38-18.14,7.09-25.42,17.29-1.61,2.17-2.74,4.44-3.59,6.52-.19.19-.47.38-.76.66-4.63,4.54-15.88,14.65-21.36,14.27-5.48-.38-.38-8.79,1.04-11.15,1.42-2.46,8.13-15.31,8.13-15.31h-8.13s-1.23,6.14-3.02,6.14c0,0-3.21-2.84-7.09-3.02s-15.69,3.78-24.38,15.31c-7.75,10.21-8.22,16.92-6.14,19.37,3.12,3.59,7.37,3.5,10.21,2.08s20.32-19.75,21.36-20.32-.38,4.06,0,6.14,2.65,6.14,7.09,6.14,12-5.67,16.25-10.21c0,0,3.4-3.21,5.76-6.05-1.13,5.95.85,10.58,4.63,11.06,5.86.57,18.71-13.04,22.4-17.29s5.1-6.14,5.1-6.14c-1.42,7.37-1.04,10.77,2.08,13.23,3.02,2.46,5.86,1.61,10.21-2.08,3.4-2.93,11.34-12.95,15.69-18.81-.28.76-.57,1.42-.76,1.98-.85,2.74-2.65,10.68,3.02,13.23,5.39,2.46,15.59-6.8,21.36-13.23,1.13-1.23,2.08-2.46,2.84-3.5-.38,3.78.76,6.43,1.89,7.65,3.21,3.59,8.41,1.89,11.15.38,2.84-1.51,13.8-13.89,14.74-14.55,1.04-.66.38,1.7.85,3.69.57,1.61,1.98,7.28,6.43,7.18ZM102.06,122.45c-5.1,5.86-15.5,17.48-18.33,16.25-2.46-1.04-.85-4.91,3.02-10.21,3.87-5.29,8.98-11.15,13.23-14.27,4.25-3.02,6.9-1.98,8.13-1.04,1.04.85-.95,3.4-6.05,9.26ZM165.47,104.02c-2.08,3.21-7.56,9.54-11.15,13.23-3.69,3.69-8.98,7.75-11.15,5.1-2.27-2.65,7.94-13.8,10.77-16.82,2.84-3.02,7.75-7.09,11.53-7.65,5.1-.66,2.08,2.93,0,6.14ZM230.58,102.03c-2.46-.95-.85-5.01,2.84-10.4,3.69-5.39,8.6-11.25,12.76-14.46,4.16-3.21,7.18-2.55,8.13-1.23,1.32,1.8,0,5.1-4.91,11.15-4.91,6.05-15.97,16.07-18.81,14.93Z"/>
  <path class="cls-1" d="M356.75,33.14c1.32-1.89,3.5-6.14.95-8.03-3.12-2.27-6.43-.66-8.69,2.27-2.65,3.5-3.5,6.52-.85,8.98,2.93,2.65,7.28-1.32,8.6-3.21Z"/>
  <path class="cls-1" d="M376.69,66.5c-.47-.85-1.13-1.51-1.98-1.98s-1.7-.76-2.65-.76-1.8.28-2.65.76-1.51,1.13-1.98,1.98-.76,1.7-.76,2.65.28,1.8.76,2.65,1.13,1.51,1.98,1.98,1.7.76,2.65.76,1.8-.19,2.65-.76c.85-.47,1.51-1.13,1.98-1.98s.76-1.7.76-2.65c0-.95-.28-1.89-.76-2.65ZM375.08,72.17c-.85.85-1.89,1.23-3.02,1.23-1.23,0-2.17-.38-3.02-1.23-.85-.85-1.23-1.89-1.23-3.02,0-1.23.38-2.17,1.23-3.02.85-.85,1.89-1.23,3.02-1.23,1.23,0,2.17.38,3.02,1.23.85.85,1.23,1.89,1.23,3.02.09,1.13-.38,2.17-1.23,3.02Z"/>
  <path class="cls-1" d="M373.19,69.71c-.09-.09-.28-.19-.47-.28.57-.09.95-.28,1.13-.57.28-.28.38-.57.38-.95,0-.47-.19-.85-.47-1.13-.28-.28-.85-.47-1.61-.47h-2.55v5.67h1.42v-2.27h.19c.19,0,.38.09.57.28.19.19.57.85,1.13,1.98h1.7c-.57-1.04-.95-1.61-.95-1.61-.19-.28-.28-.47-.47-.66ZM371.68,68.67h-.57v-1.42h.66c.38,0,.66.09.85.19.19.09.28.28.28.47s-.09.38-.28.47c-.19.19-.47.28-.95.28Z"/>
  <path class="cls-1" d="M282.09,120.93h-6.05l-.47,2.84h3.21v2.74c-1.23,1.42-3.12,1.98-4.91,1.98-3.31,0-5.48-2.84-5.48-6.14s2.17-6.14,5.48-6.14c2.65,0,4.16.85,5.29,2.36l2.17-2.17c-1.32-1.8-3.5-3.4-7.47-3.4-4.82,0-8.88,4.06-8.88,9.36s3.97,9.36,8.88,9.36c4.44,0,6.43-1.8,8.22-4.25v-6.52Z"/>
  <polygon class="cls-1" points="289.84 123.67 295.41 123.67 295.41 120.56 289.84 120.56 289.84 116.59 296.07 116.59 295.6 113.37 286.53 113.37 286.53 131.05 295.89 131.05 296.36 127.93 289.84 127.93 289.84 123.67"/>
  <polygon class="cls-1" points="303.63 113.37 300.33 113.37 300.33 131.05 308.93 131.05 309.4 127.93 303.63 127.93 303.63 113.37"/>
  <path class="cls-1" d="M320.17,113.37h-3.4l-5.86,17.67h3.59l1.13-3.97h5.76l1.13,3.97h3.59l-5.95-17.67ZM316.49,124.24l1.98-6.9h.09l1.98,6.9h-4.06Z"/>
  <polygon class="cls-1" points="334.92 131.05 334.92 116.59 338.7 116.59 338.32 113.37 328.21 113.37 327.83 116.59 331.61 116.59 331.61 131.05 334.92 131.05"/>
  <path class="cls-1" d="M350.22,112.9c-5.1,0-9.07,3.78-9.07,9.36s4.06,9.36,9.07,9.36,9.07-3.78,9.07-9.36-3.97-9.36-9.07-9.36ZM350.22,128.4c-3.21,0-5.76-2.36-5.76-6.14s2.65-6.14,5.76-6.14,5.76,2.36,5.76,6.14-2.55,6.14-5.76,6.14Z"/>
  <polygon class="cls-1" points="223.59 141.53 223.4 139.74 214.9 139.74 214.9 157.41 216.79 157.41 216.79 149.19 222.55 149.19 222.46 147.49 216.79 147.49 216.79 141.53 223.59 141.53"/>
  <rect class="cls-1" x="227.75" y="139.74" width="1.8" height="17.67"/>
  <path class="cls-1" d="M244.48,144.65c0-3.4-2.55-4.91-5.39-4.91h-3.78v17.67h1.8v-7.84h.47l5.29,7.84h2.36l-5.48-7.84c2.17-.19,4.73-1.42,4.73-4.91ZM237.11,147.87v-6.43h1.98c1.8,0,3.59.76,3.59,3.21s-1.7,3.21-3.59,3.21h-1.98Z"/>
  <polygon class="cls-1" points="251.38 149.19 256.86 149.19 256.86 147.49 251.38 147.49 251.38 141.53 257.71 141.53 257.52 139.74 249.48 139.74 249.48 157.41 257.99 157.41 258.18 155.71 251.38 155.71 251.38 149.19"/>
  <polygon class="cls-1" points="275 154.39 264.7 139.74 262.81 139.74 262.81 157.41 264.7 157.41 264.7 142.86 275 157.41 276.8 157.41 276.8 139.74 275 139.74 275 154.39"/>
  <polygon class="cls-1" points="291.73 140.87 291.73 139.74 281.71 139.74 281.24 141.53 289.27 141.53 281.24 156.37 281.24 157.41 291.63 157.41 292.11 155.71 283.69 155.71 291.73 140.87"/>
  <polygon class="cls-1" points="298.25 149.19 303.73 149.19 303.73 147.49 298.25 147.49 298.25 141.53 304.67 141.53 304.39 139.74 296.36 139.74 296.36 157.41 304.86 157.41 305.05 155.71 298.25 155.71 298.25 149.19"/>
  <polygon class="cls-1" points="315.64 150.13 315.64 152.59 318.57 149.85 318.57 157.41 320.27 157.41 320.27 147.68 318.57 147.68 315.64 150.13"/>
  <path class="cls-1" d="M329.91,147.3c-3.21,0-5.39,2.08-5.39,5.29,0,4.16,3.97,6.14,6.9,4.91l-4.06,5.39h2.17l3.87-5.39c1.13-1.51,1.98-2.93,1.98-4.91-.09-3.21-2.36-5.29-5.48-5.29ZM329.91,156.18c-1.98,0-3.69-1.51-3.69-3.69s1.7-3.69,3.69-3.69,3.69,1.51,3.69,3.69-1.8,3.69-3.69,3.69Z"/>
  <path class="cls-1" d="M344.65,154.1c.95-.38,2.17-1.32,2.17-3.31s-1.51-3.59-4.44-3.59c-1.89,0-3.4.85-4.44,2.36l1.23.95c.76-.95,1.7-1.7,3.21-1.7s2.74.76,2.74,1.98c0,1.7-1.51,2.46-2.93,2.46h-.76v1.7h.76c1.7,0,3.69.95,3.69,3.21,0,1.98-1.7,2.93-3.4,2.93s-2.93-.95-3.97-2.55l-1.23,1.04c.95,1.7,2.65,3.02,5.2,3.02,3.21,0,5.2-2.08,5.2-4.54-.09-2.55-2.08-3.78-3.02-3.97Z"/>
  <path class="cls-1" d="M359.11,150.32c0-1.98-1.7-3.02-4.16-3.02-2.17,0-3.4.85-4.63,1.8l.95,1.51c.95-.95,2.46-1.7,3.69-1.7,1.8,0,2.46.76,2.46,1.51,0,2.46-6.9,1.23-6.9,5.86v1.23h8.32l.28-1.7h-6.62c0-2.55,6.62-1.32,6.62-5.48Z"/>
</svg>